# xmcd
#
# Track frame offsets:
#	233
#	19255
#	43808
#	61733
#	76993
#	97283
#	113633
#	135433
#	147233
#	165133
#
# Disc length: 2430 seconds
#
# Revision: 3
# Processed by: cddbd v1.5.1PL2 Copyright (c) Steve Scherf et al.
# Submitted via: audiograbber 1.83.01
#
DISCID=7c097b0a
DTITLE=Winter, Johnny - Guitar Slinger
DYEAR=1984
DGENRE=
TTITLE0=It's My Life, Baby
TTITLE1=Don't Take Advantage Of Me
TTITLE2=Iodine In My Coffee
TTITLE3=Trick Bag
TTITLE4=Mad Dog
TTITLE5=Boot Hill
TTITLE6=I Smell Trouble
TTITLE7=Lights Out
TTITLE8=Kiss Tomorrow Goodbye
TTITLE9=My Soul
EXTD=
EXTT0=
EXTT1=
EXTT2=
EXTT3=
EXTT4=
EXTT5=
EXTT6=
EXTT7=
EXTT8=
EXTT9=
PLAYORDER=
